# Blender v2.79 (sub 7) OBJ File: 'Swords_pack_01.blend'
# www.blender.org
mtllib Classic_hoplite_sword.mtl
o Classic_hoplite_sword_Cube
v -0.016437 -8.993674 -0.000000
v 0.274334 -7.248442 0.004872
v 0.274334 -7.248442 -0.004872
v -0.313708 -7.248442 -0.004872
v -0.313708 -7.248442 0.004872
v 0.460961 -5.054401 0.008184
v 0.460961 -5.054401 -0.008184
v -0.526822 -5.054401 -0.008184
v -0.526822 -5.054401 0.008184
v 0.483458 1.046091 0.007857
v 0.483458 1.046091 -0.007857
v -0.464897 1.046091 -0.007857
v -0.464897 1.046091 0.007857
v 0.408077 -1.388219 -0.006884
v -0.422838 -1.388219 -0.006884
v 0.408077 -1.388219 0.006884
v -0.422838 -1.388219 0.006884
v -0.019687 -7.248440 0.059981
v -0.019687 -7.248440 -0.059981
v -0.032930 -5.054401 0.100755
v -0.032931 -5.054401 -0.100755
v 0.009281 1.046089 0.096733
v 0.009280 1.046089 -0.096734
v -0.007380 -1.388220 0.084754
v -0.007381 -1.388220 -0.084754
v -0.005435 1.333621 -0.160864
v -0.218785 1.333621 -0.080432
v -0.218785 1.333621 0.080432
v -0.005435 1.333621 0.160864
v 0.207916 1.333621 0.080432
v 0.207916 1.333621 -0.080432
v -0.150981 3.249667 -0.062338
v 0.037485 3.249667 -0.124677
v -0.150981 3.249667 0.062339
v 0.037485 3.249667 0.124677
v 0.225952 3.249667 0.062339
v 0.225952 3.249667 -0.062338
v 0.236215 2.340260 -0.085331
v 0.236215 2.340260 0.085331
v 0.017114 2.340260 0.170661
v -0.201987 2.340260 0.085331
v -0.201987 2.340260 -0.085331
v 0.017114 2.340260 -0.170661
v -0.375674 4.105500 -0.136893
v 0.038496 4.105500 -0.273887
v -0.375674 4.105500 0.136894
v 0.038496 4.105500 0.273887
v 0.452666 4.105500 0.136894
v 0.452666 4.105500 -0.136893
v 0.009280 1.002528 -0.191052
v -0.631600 1.002528 -0.135094
v -0.897062 1.002528 0.000000
v -0.631600 1.002528 0.135094
v 0.009281 1.002528 0.191052
v 0.650162 1.002528 0.135094
v 0.915623 1.002528 -0.000000
v 0.650162 1.002528 -0.135094
v -0.005435 1.333621 -0.191052
v -0.646316 1.333621 -0.135094
v -0.911777 1.333621 0.000000
v -0.646316 1.333621 0.135094
v -0.005435 1.333621 0.191052
v 0.635446 1.333621 0.135094
v 0.900908 1.333620 -0.000000
v 0.635446 1.333621 -0.135094
vn 0.1842 -0.0172 -0.9827
vn 0.9864 -0.1643 -0.0000
vn -0.1841 -0.0341 -0.9823
vn -0.9858 -0.1679 0.0000
vn -0.1841 -0.0341 0.9823
vn 0.1842 -0.0061 -0.9829
vn 0.9964 -0.0848 -0.0000
vn -0.9953 -0.0967 0.0000
vn -0.1842 -0.0194 0.9827
vn 0.9995 -0.0310 -0.0000
vn -0.9999 -0.0173 0.0000
vn -0.1842 -0.0036 0.9829
vn -0.1842 0.0056 0.9829
vn -0.9996 0.0284 0.0000
vn 0.9999 0.0144 -0.0000
vn 0.1842 0.0030 -0.9829
vn -0.1842 0.0056 -0.9829
vn 0.1842 0.0030 0.9829
vn 0.1842 -0.0061 0.9829
vn 0.1842 -0.0172 0.9827
vn -0.1842 -0.0036 -0.9829
vn 0.1841 -0.0334 0.9823
vn 0.1841 -0.0334 -0.9823
vn -0.1842 -0.0194 -0.9827
vn 0.0870 0.0039 0.9962
vn -0.4535 -0.0202 0.8910
vn -0.0870 -0.0039 -0.9962
vn 0.0870 0.0039 -0.9962
vn 0.4535 0.0202 0.8910
vn -0.0870 -0.0039 0.9962
vn -0.4535 -0.0202 -0.8910
vn 0.4535 0.0202 -0.8910
vn 0.0000 1.0000 -0.0000
vn 0.0000 -1.0000 0.0000
vn 0.9999 0.0113 0.0000
vn -0.3626 0.0439 0.9309
vn -0.3136 0.0550 -0.9480
vn 0.3139 0.0275 -0.9491
vn 0.3626 0.0390 0.9311
vn -0.9984 0.0560 0.0000
vn -0.9999 0.0167 0.0000
vn 0.3527 -0.0170 0.9356
vn 0.3629 -0.0147 -0.9317
vn -0.3629 -0.0009 -0.9318
vn -0.3528 0.0013 0.9357
vn 0.9996 -0.0281 0.0000
vn -0.3136 0.0550 0.9480
vn -0.3626 0.0439 -0.9309
vn 0.3626 0.0390 -0.9311
vn 0.3139 0.0275 0.9491
vn 0.3629 -0.0147 0.9317
vn 0.3527 -0.0170 -0.9356
vn -0.3528 0.0013 -0.9357
vn -0.3629 -0.0009 0.9318
vn 0.3098 -0.1637 -0.9366
vn 0.3098 -0.1637 0.9366
vn -0.9672 -0.2539 0.0000
vn 0.9667 -0.2561 0.0000
vn -0.3098 -0.1629 0.9367
vn -0.3098 -0.1629 -0.9367
usemtl Iron_hoplite
s off
f 21//1 3//1 19//1
f 1//2 3//2 2//2
f 1//3 4//3 19//3
f 1//4 5//4 4//4
f 18//5 5//5 1//5
f 23//6 14//6 25//6
f 7//7 2//7 3//7
f 9//8 4//8 5//8
f 20//9 5//9 18//9
f 11//10 16//10 14//10
f 13//11 15//11 17//11
f 22//12 17//12 24//12
f 20//13 17//13 9//13
f 17//14 8//14 9//14
f 7//15 16//15 6//15
f 21//16 14//16 7//16
f 15//17 21//17 8//17
f 16//18 20//18 6//18
f 16//19 22//19 24//19
f 2//20 20//20 18//20
f 15//21 23//21 25//21
f 2//22 18//22 1//22
f 1//23 19//23 3//23
f 4//24 21//24 19//24
f 63//25 54//25 55//25
f 61//26 52//26 53//26
f 51//27 58//27 50//27
f 50//28 65//28 57//28
f 64//29 55//29 56//29
f 62//30 53//30 54//30
f 52//31 59//31 51//31
f 57//32 64//32 56//32
f 65//33 58//33 62//33
f 54//34 53//34 50//34
f 21//1 7//1 3//1
f 23//6 11//6 14//6
f 7//7 6//7 2//7
f 9//8 8//8 4//8
f 20//9 9//9 5//9
f 11//10 10//10 16//10
f 13//11 12//11 15//11
f 22//12 13//12 17//12
f 20//13 24//13 17//13
f 17//14 15//14 8//14
f 7//15 14//15 16//15
f 21//16 25//16 14//16
f 15//17 25//17 21//17
f 16//18 24//18 20//18
f 16//19 10//19 22//19
f 2//20 6//20 20//20
f 15//21 12//21 23//21
f 4//24 8//24 21//24
f 63//25 62//25 54//25
f 61//26 60//26 52//26
f 51//27 59//27 58//27
f 50//28 58//28 65//28
f 64//29 63//29 55//29
f 62//30 61//30 53//30
f 52//31 60//31 59//31
f 57//32 65//32 64//32
f 58//33 59//33 62//33
f 59//33 60//33 61//33
f 62//33 59//33 61//33
f 62//33 63//33 65//33
f 63//33 64//33 65//33
f 52//34 51//34 53//34
f 51//34 50//34 53//34
f 50//34 57//34 54//34
f 57//34 56//34 55//34
f 54//34 57//34 55//34
usemtl Black_handle_hoplite
f 29//34 28//34 26//34
f 38//35 36//35 39//35
f 40//36 34//36 41//36
f 43//37 32//37 33//37
f 38//38 33//38 37//38
f 39//39 35//39 40//39
f 41//40 32//40 42//40
f 28//41 42//41 27//41
f 30//42 40//42 29//42
f 31//43 43//43 38//43
f 26//44 42//44 43//44
f 29//45 41//45 28//45
f 31//46 39//46 30//46
f 28//34 27//34 26//34
f 26//34 31//34 30//34
f 30//34 29//34 26//34
f 38//35 37//35 36//35
f 40//47 35//47 34//47
f 43//48 42//48 32//48
f 38//49 43//49 33//49
f 39//50 36//50 35//50
f 41//40 34//40 32//40
f 28//41 41//41 42//41
f 30//51 39//51 40//51
f 31//52 26//52 43//52
f 26//53 27//53 42//53
f 29//54 40//54 41//54
f 31//46 38//46 39//46
usemtl Gray_hoplite
f 37//55 45//55 49//55
f 48//33 49//33 45//33
f 36//56 47//56 35//56
f 34//57 44//57 32//57
f 37//58 48//58 36//58
f 34//59 47//59 46//59
f 32//60 45//60 33//60
f 37//55 33//55 45//55
f 45//33 44//33 46//33
f 46//33 47//33 45//33
f 47//33 48//33 45//33
f 36//56 48//56 47//56
f 34//57 46//57 44//57
f 37//58 49//58 48//58
f 34//59 35//59 47//59
f 32//60 44//60 45//60
