<svg id="Capa_1" enable-background="new 0 0 512.005 512.005" height="512" viewBox="0 0 512.005 512.005" width="512" xmlns="http://www.w3.org/2000/svg"><g><path d="m311.789 86.168c-16.054-13.654-37.278-21.164-59.758-21.164-.096 0-.194 0-.289 0h-128.043c-49.447.142-88.083 34.862-87.957 79v224.043c.112 39.243 14.906 75.621 41.657 102.432 26.729 26.79 62.915 41.527 101.9 41.526.146 0 .297 0 .442-.001h16 .043c39.21-.112 75.431-14.927 101.989-41.715 26.53-26.76 41.08-63.1 40.968-102.285v-224.042c-.063-22.541-9.636-43.066-26.952-57.794zm-60.004 8.837h.205c15.403 0 29.731 4.974 40.362 14.016 7.449 6.336 16.34 17.556 16.39 34.985v129h-106v-36.889c18.58-7.344 32-27.921 32-52.111s-13.42-44.767-32-52.111v-36.89zm-64.043 64c9.215 0 17 11.448 17 25s-7.785 25-17 25-17-11.448-17-25 7.785-25 17-25zm-64-64h49v36.889c-18.58 7.344-32 27.921-32 52.111s13.42 44.767 32 52.111v36.889h-107v-129.043c-.087-30.54 29.444-48.875 58-48.957zm71.957 387h-16c-.12 0-.235 0-.355 0-30.998 0-59.65-11.611-80.707-32.715-21.123-21.171-32.806-50.053-32.895-81.286v-65h243v65.043c.186 64.782-48.413 113.773-113.043 113.958z"/><path d="m449.627 89.942c-3.482-7.518-12.398-10.791-19.915-7.31l-50.817 23.529c-7.518 3.481-10.79 12.396-7.309 19.914 2.536 5.478 7.957 8.701 13.621 8.701 2.109 0 4.253-.447 6.293-1.392l50.817-23.529c7.518-3.48 10.79-12.395 7.31-19.913z"/><path d="m375.624 74.116 21.297-53.57c3.061-7.698-.699-16.42-8.397-19.48-7.702-3.062-16.421.7-19.479 8.397l-21.297 53.571c-3.061 7.698.699 16.42 8.397 19.48 1.818.723 3.692 1.065 5.536 1.065 5.964 0 11.606-3.582 13.943-9.463z"/><path d="m466.429 175.164-52.571-19.296c-7.781-2.856-16.396 1.135-19.25 8.913-2.854 7.777 1.136 16.395 8.912 19.25l52.571 19.296c1.706.626 3.451.923 5.168.923 6.111 0 11.854-3.764 14.082-9.836 2.854-7.777-1.136-16.395-8.912-19.25z"/></g></svg>